<svg id="Layer_1" data-name="Layer 1" xmlns="http://www.w3.org/2000/svg" width="500" height="500" viewBox="0 0 500 500">
  <defs>
    <style>
      .cls-1 {
        fill: #fff;
      }
    </style>
  </defs>
  <title>Team_Logos_Philly_Alt</title>
  <g id="Philly">
    <g>
      <path d="M367.94,154.83H172.6V249.9H91.44L172.31,302l.57,99.94,57.64-53.26V302.3l115,.3,49.1-49.1V180S397.16,154.33,367.94,154.83ZM230.53,206.66H328c3.06.09,13.38,1.26,12.92,12.89v12.57l-17,17q-.82.12-1.71.21H230.53Z"/>
      <g>
        <path class="cls-1" d="M159.63,186c-15.86-39.15-18.84-71.88-7-90.9h0c-15.49-1.3-33.11,6.24-33.11,6.24,45.66-39.59,99.92-18.68,99.92-18.68h0c29.16,9.2,63.8,30,98.58,59.19h23.81C262.45,63.24,176.38,18.85,133.3,39s-29.8,98,26.33,186.9Z"/>
        <path class="cls-1" d="M485,387.7a111.5,111.5,0,0,0-1.26-13.4l-.35-.06c-2.41-16.44-7.9-35-16.24-55A459.14,459.14,0,0,0,435.69,259h0q4.77-6,9-11.87a222.33,222.33,0,0,0,22.4-39.43c9.38-23.71,8.39-43.28-5-55.71-15.74-14.58-46.19-17.08-84.81-9.43a38.66,38.66,0,0,1,14,5.05c28.54-5.49,57.9-3.13,69.11,13.65,18.83,28.19-30,89.3-30,89.3l-2.64-4.11q-2-3.05-4.07-6.12c-5.32-7.85-11-15.76-16.06-22.52v18.68c9.61,13.39,15.59,22.89,15.44,23.09-10.09,13.14-25,27.67-39.23,40.28Q371.27,311.21,357,322.55h0c-7.68,6.16-12.7,9.93-12.7,9.93h-.06q-10,7.51-20.71,14.89-4.46,3.08-9,6a25.87,25.87,0,0,0-14.32-7.48c-14.46-2.46-28.59,7-31.57,21a24.71,24.71,0,0,0,1,13.76c-84,46.35-163.53,64.71-194.29,42.19l-.9,4.33c-2.54,13.45,2.47,29.57,2.47,29.57-19.32-27.55-17.13-55.9-12.92-73,6-26,29.18-59.47,65.22-94L115.74,281C33.36,351.47-6,422.39,26.21,452.19c35,32.4,142.59,5.16,251.28-60.68a26.12,26.12,0,0,0,11.89,5.25c14.46,2.46,28.59-7,31.57-21a24.79,24.79,0,0,0-.49-12.3q19-13.38,36.13-27.1l.08.06q4.58-3.73,8.91-7.39h0c34.17-28.86,55.94-53.23,61.43-59.56l1.32-1.54h0l0-.06c13.68,21.59,23.29,40.63,30,57.07,7.07,17.07,11.72,33,13.79,47.07h-.23a125.89,125.89,0,0,1,1.3,13.18h.12q.11,3.82-.08,7.4a46.57,46.57,0,0,1-1,9.14h0c-2.63,13.85-9.6,24.11-21.24,29.55-19.23,9-48.15,3.4-81-13.26h0s-17.13-7.94-51-27.24c0,0,9.23,12.15,42.6,32.73,39.79,21.27,74.89,28.83,97.82,18.11C475.79,434,484,417.89,484.8,396h-.07a4,4,0,0,1,.1-.72q.1-3.67-.07-7.55Z"/>
      </g>
    </g>
  </g>
</svg>
